# xmcd
#
# Track frame offsets: 
#        150
#        20356
#        35057
#        55185
#        71385
#        92875
#        111892
#        133933
#        156245
#        178491
#
# Disc length: 2609 seconds
#
# Revision: 0
# Processed by: cddbd v1.5PL3 Copyright (c) Steve Scherf et al.
# Submitted via: ExactAudioCopy v0.95a4
#
DISCID=8f0a2f0a
DTITLE=McLean and Moon - Between 11th and 10th
DYEAR=2002
DGENRE=Blues
TTITLE0=Plenty of Blue
TTITLE1=I Spent All My Money
TTITLE2=Pay The People
TTITLE3=Let Me Down Easy
TTITLE4=I Had The Blues
TTITLE5=Good Morning To The Afternoon
TTITLE6=Somewhere Like 10A Street
TTITLE7=Pull Down Your Blinds
TTITLE8=Hobo
TTITLE9=Feelin' Man
EXTD=
EXTT0=
EXTT1=
EXTT2=
EXTT3=
EXTT4=
EXTT5=
EXTT6=
EXTT7=
EXTT8=
EXTT9=
PLAYORDER=
